# xmcd
#
# Track frame offsets: 
#        150
#        20400
#        43277
#        61957
#        78832
#        99585
#        117047
#        135137
#        151037
#        171287
#        187360
#
# Disc length: 2848 seconds
#
# Revision: 2
# Processed by: cddbd v1.5.2PL0 Copyright (c) Steve Scherf et al.
# Submitted via: ExactAudioCopy v1.0b2
#
DISCID=860b1e0b
DTITLE=Paul Brandt - This Time Around
DYEAR=2004
DGENRE=Country
TTITLE0=Convoy
TTITLE1=Leavin'
TTITLE2=Home
TTITLE3=Alberta Bound
TTITLE4=Run to Me
TTITLE5=The King
TTITLE6=Live Now
TTITLE7=Rich Man
TTITLE8=I Still Do
TTITLE9=This Time Around
TTITLE10=That's What I Love About Jesus
EXTD=YEAR: 2004 ID3G: 2
EXTT0=
EXTT1=
EXTT2=
EXTT3=
EXTT4=
EXTT5=
EXTT6=
EXTT7=
EXTT8=
EXTT9=
EXTT10=
PLAYORDER=
